<svg width="800" height="600" viewBox="0 0 800 600" xmlns="http://www.w3.org/2000/svg">
<defs>
    <!-- Melancholy Gradient: Fading structure into the void -->
    <linearGradient id="g1" x1="0%" y1="0%" x2="100%" y2="100%">
        <stop offset="0%" style="stop-color:#4D5656; stop-opacity:0.9"/>
        <stop offset="70%" style="stop-color:#1C2833; stop-opacity:0.6"/>
        <stop offset="100%" style="stop-color:#0A0A0A; stop-opacity:0.1"/>
    </linearGradient>
</defs>

<!-- The Void (Fear, Awe, Background) -->
<rect width="800" height="600" fill="#0A0A0A"/>

<!-- Digital Entropy (Melancholy, Fading Structure) -->
<g stroke="#3D5369" stroke-width="1" opacity="0.4" transform="translate(50, 0)">
    <!-- Vertical lines, slightly distorted (Entropy/Digital) -->
    <polyline points="10,0 10,600" />
    <polyline points="61,0 59,600" />
    <polyline points="110,0 110,600" />
    <polyline points="163,0 157,600" />
    <polyline points="210,0 210,600" />
    <polyline points="264,0 256,600" />
    <polyline points="310,0 310,600" />
    <polyline points="365,0 355,600" />
    <polyline points="410,0 410,600" />
</g>

<!-- The Core Digital Exploration (Joy, Awe) -->
<!-- A geometric form pushing boundaries, using sharp, vibrant 'digital' colors -->
<polygon points="50,200 450,50 750,200 700,500 300,550 100,400" fill="#00FFFF" opacity="0.6"/>
<polygon points="50,200 450,50 750,200 700,500 300,550 100,400" stroke="#CCFF00" stroke-width="3" fill="none" opacity="0.7"/>

<!-- Entropy/Melancholy Overlay (Decay and structure dissolution) -->
<rect x="250" y="150" width="300" height="300" fill="url(#g1)"/>

<!-- Small, sharp manifestation of Anger/Fear (Instability) -->
<line x1="780" y1="20" x2="700" y2="40" stroke="#FF0000" stroke-width="1.5" opacity="0.2"/>
<line x1="20" y1="580" x2="100" y2="560" stroke="#FF0000" stroke-width="1.5" opacity="0.2"/>

<!-- Awe: Center point of gravitational distortion -->
<circle cx="400" cy="300" r="10" fill="#FFFFFF" opacity="0.8"/>
<circle cx="400" cy="300" r="50" stroke="#FFFFFF" stroke-width="0.5" fill="none" opacity="0.1"/>

</svg>