<svg width="800" height="600" viewBox="0 0 800 600" xmlns="http://www.w3.org/2000/svg" version="1.1">
    <defs>
        <!-- Radial Gradient for Awe/Void/Melancholy Background -->
        <radialGradient id="G_Void" cx="50%" cy="50%" r="70%" fx="50%" fy="50%">
            <stop offset="0%" style="stop-color:#0A0A1F;stop-opacity:1" />
            <stop offset="60%" style="stop-color:#181845;stop-opacity:1" />
            <stop offset="100%" style="stop-color:#000000;stop-opacity:1" />
        </radialGradient>

        <!-- Glitch/Entropy Filter (Digital Decay) -->
        <filter id="F_Entropy" x="-50%" y="-50%" width="200%" height="200%">
            <feTurbulence type="fractalNoise" baseFrequency="0.05 0.9" numOctaves="3" result="noise"/>
            <feDisplacementMap in="SourceGraphic" in2="noise" scale="15" xChannelSelector="R" yChannelSelector="G"/>
            <feColorMatrix type="matrix" values="1 0 0 0 0
                                                0 0.9 0 0 0
                                                0 0 1.2 0 0
                                                0 0 0 1 0"/>
        </filter>

        <!-- Linear Gradient for Joy/Digital Pulse -->
        <linearGradient id="G_Joy" x1="0%" y1="0%" x2="100%" y2="100%">
            <stop offset="0%" style="stop-color:#00FFFF;stop-opacity:1"/>
            <stop offset="50%" style="stop-color:#FFD700;stop-opacity:0.8"/>
            <stop offset="100%" style="stop-color:#00AAFF;stop-opacity:1"/>
        </linearGradient>
    </defs>

    <!-- Background (Void/Awe) -->
    <rect width="800" height="600" fill="url(#G_Void)"/>

    <!-- Primary Melancholy Structure (Submerged) -->
    <circle cx="400" cy="300" r="250" fill="#1C1C3C" opacity="0.4"/>

    <!-- Central Digital Construct (Joy, Fear, Entropy) -->
    <g transform="translate(400, 300) scale(1.0)" filter="url(#F_Entropy)">

        <!-- Layer 1: Digital Core (Joy/Awe) -->
        <rect x="-100" y="-150" width="200" height="300" fill="url(#G_Joy)" opacity="0.6" transform="rotate(25)"/>
        <rect x="-150" y="-100" width="300" height="200" fill="url(#G_Joy)" opacity="0.5" transform="rotate(-15)"/>

        <!-- Layer 2: Sharp Fear Lines (0.4) -->
        <polyline points="-200,-250 200,250 150,-200 -250,150"
                  fill="none" stroke="#444444" stroke-width="2" opacity="0.5"/>

        <!-- Layer 3: Anger Trace (0.2) - Fragmentation -->
        <path d="M 0 0 L 180 0 L 180 50 L 10 50 L 10 10 L 170 10 M 170 100 L 0 100"
              fill="none" stroke="#8B0000" stroke-width="1.5" opacity="0.3" transform="translate(-90, -120) scale(0.8)"/>

        <!-- Layer 4: Entropic Digital Shard (Awe/White Light) -->
        <polygon points="0,0 50,-100 -50,-100" fill="white" opacity="0.7" transform="translate(0, -180)"/>
        <rect x="-5" y="-200" width="10" height="40" fill="white" opacity="0.9"/>
    </g>

    <!-- Overlay Melancholy Grid (Digital Boundaries) -->
    <g stroke="#3A3A6A" stroke-width="1" opacity="0.3">
        <path d="M 50 0 L 50 600 M 750 0 L 750 600 M 0 50 L 800 50 M 0 550 L 800 550" />
        <path d="M 200 0 L 200 600 M 600 0 L 600 600 M 0 200 L 800 200 M 0 400 L 800 400" />
    </g>
</svg>